<svg width="54" height="54" viewBox="0 0 54 54" fill="none" xmlns="http://www.w3.org/2000/svg">
<g clip-path="url(#clip0_599_21437)">
<path d="M46.5 0.375H7.5C3.56497 0.375 0.375 3.56497 0.375 7.5V46.5C0.375 50.435 3.56497 53.625 7.5 53.625H46.5C50.435 53.625 53.625 50.435 53.625 46.5V7.5C53.625 3.56497 50.435 0.375 46.5 0.375Z" fill="#1E2027" stroke="#FF5533"/>
<path d="M39.5135 18.7705C39.3369 17.9166 38.9247 17.151 38.3358 16.5622C38.1591 16.3855 37.953 16.2089 37.7175 16.0616L37.688 16.0321C37.6586 16.0027 37.6292 16.0028 37.5997 15.9733C37.5114 15.9144 37.4231 15.8555 37.3347 15.8261H37.3052C36.6869 15.5022 36.0098 15.3255 35.2442 15.3255H33.4187V14.0594C33.4187 13.765 33.1832 13.5 32.8592 13.5C32.5648 13.5 32.2998 13.7356 32.2998 14.0594V15.2666H21.7295V14.0594C21.7295 13.765 21.4645 13.5 21.17 13.5C20.8756 13.5 20.6106 13.7356 20.6106 14.0594V15.2666H18.7851C18.2257 15.2666 17.6663 15.3844 17.1657 15.5905C16.6062 15.826 16.1057 16.15 15.6935 16.5622C15.458 16.7977 15.2519 17.0627 15.0752 17.3277C14.8985 17.6221 14.7513 17.9166 14.6335 18.2405C14.5746 18.4172 14.5157 18.5938 14.4863 18.7705C14.4274 19.0648 14.398 19.3593 14.398 19.6537V22.5982V36.1717C14.398 37.379 14.8985 38.4684 15.6641 39.2339C16.4591 40.0289 17.5484 40.5 18.7262 40.5H35.2736C36.4808 40.5 37.5703 39.9995 38.3358 39.2339C39.1308 38.4389 39.6019 37.3495 39.6019 36.1717V22.5982V19.6537C39.6019 19.3593 39.5724 19.0648 39.5135 18.7705ZM15.5462 19.6244C15.5462 19.3888 15.5757 19.1827 15.6052 18.9766C15.6346 18.7705 15.7229 18.5644 15.7818 18.3582C15.8996 18.0932 16.0468 17.8577 16.194 17.6516C16.2824 17.5338 16.3707 17.4454 16.4591 17.3277C16.6357 17.151 16.8418 17.0038 17.0479 16.8566C17.5484 16.5622 18.1079 16.3855 18.7262 16.3855H20.5517V17.5927C20.5517 17.8871 20.7873 18.1521 21.1112 18.1521C21.4056 18.1521 21.6706 17.9166 21.6706 17.5927V16.3855H32.3882V17.5927C32.3882 17.8871 32.6237 18.1521 32.9476 18.1521C33.242 18.1521 33.507 17.9166 33.507 17.5927V16.3855H35.3325C35.9509 16.3855 36.5397 16.5622 37.0109 16.8566C37.217 17.0038 37.4231 17.151 37.5997 17.3277C38.0414 17.7694 38.3652 18.3288 38.483 18.9766C38.5124 19.1827 38.5419 19.4182 38.5419 19.6244V22.0387H15.5462V19.6244ZM38.5714 36.1423C38.5714 37.0551 38.2181 37.8795 37.6292 38.4684C37.0403 39.0572 36.2159 39.4106 35.3325 39.4106H18.7851C17.9018 39.4106 17.0774 39.0572 16.4885 38.4684C15.8996 37.8795 15.5462 37.0551 15.5462 36.1717V23.1281H38.5714V36.1423Z" fill="#FF5533"/>
</g>
<defs>
<clipPath id="clip0_599_21437">
<rect width="54" height="54" fill="white"/>
</clipPath>
</defs>
</svg>
