<svg width="54" height="54" viewBox="0 0 54 54" fill="none" xmlns="http://www.w3.org/2000/svg">
<g clip-path="url(#clip0_599_21451)">
<path d="M46.5 0.375H7.5C3.56497 0.375 0.375 3.56497 0.375 7.5V46.5C0.375 50.435 3.56497 53.625 7.5 53.625H46.5C50.435 53.625 53.625 50.435 53.625 46.5V7.5C53.625 3.56497 50.435 0.375 46.5 0.375Z" fill="#1E2027" stroke="#FF5533"/>
<path d="M18.1753 42.9214C18.7342 39.6857 18.9277 36.3521 18.323 33.1087C18.0557 31.6767 17.6433 30.1938 16.9012 28.926C16.8439 28.8293 16.7815 28.7351 16.723 28.6409C16.4379 28.1852 16.1782 27.7155 15.9567 27.2254C15.7492 26.7659 15.6461 26.2466 15.4234 25.7998C15.2006 25.353 14.5451 25.7463 14.764 26.1855V26.188C14.9638 26.5865 15.5621 26.3026 15.4628 25.894C14.5094 21.9429 14.7844 17.6279 17.95 14.7231C20.725 12.176 24.8491 11.3067 28.5176 11.6567C31.561 11.9469 34.2838 13.5088 35.7183 16.262C36.6004 17.9563 36.9505 19.8872 37.0255 21.78C37.0498 22.4101 36.8601 23.254 37.1325 23.8268C37.3094 24.1997 37.5271 24.5587 37.7231 24.9227C38.4308 26.2351 39.1386 27.5474 39.845 28.8611C40.0092 29.1653 40.3033 29.5344 40.3898 29.8718C40.6279 30.8022 37.9917 31.2592 37.3972 31.3852C37.2343 31.4196 37.1172 31.5927 37.1172 31.7531C37.1172 33.068 37.1338 34.3829 37.1172 35.6978C37.102 36.8561 36.3802 37.3589 35.2957 37.4773C33.9566 37.6224 32.6086 37.6669 31.2632 37.6796C31.0506 37.6822 30.8902 37.8528 30.8813 38.0616C30.819 39.6476 30.7553 41.2349 30.6929 42.8209C30.6739 43.3122 31.4376 43.311 31.4566 42.8209C31.519 41.2349 31.5827 39.6476 31.645 38.0616L31.2632 38.4434C32.7156 38.4294 34.1717 38.381 35.614 38.2041C36.883 38.0488 37.8288 37.2278 37.8809 35.8964C37.9331 34.5649 37.8809 33.1316 37.8809 31.7543L37.6009 32.1222C38.8165 31.8638 41.9249 31.2681 40.9932 29.3792C40.4509 28.2819 39.8284 27.2178 39.248 26.1397L38.2221 24.2354C38.0923 23.9936 37.7753 23.6129 37.7371 23.3355C37.7257 23.2476 37.8071 22.862 37.8071 22.685C37.8084 22.3502 37.802 22.0155 37.788 21.682C37.7626 21.1169 37.7116 20.5542 37.634 19.9941C37.4953 18.9873 37.2661 17.9906 36.9008 17.0411C35.6839 13.8716 33.0541 11.6936 29.7217 11.061C25.9489 10.3457 21.5383 11.0941 18.4057 13.3739C16.6479 14.6544 15.3139 16.4249 14.6749 18.5125C13.9099 21.0086 14.1263 23.5977 14.7284 26.0963L15.4259 25.8023V25.7998C15.2044 25.3607 14.5451 25.7463 14.7653 26.1855C14.9384 26.5317 15.0199 26.9606 15.1726 27.3221C15.3534 27.7499 15.557 28.1661 15.7874 28.5683C15.9109 28.7834 16.0471 28.9896 16.177 29.201C16.3857 29.5446 16.5626 29.9074 16.7179 30.2778C17.5339 32.2304 17.852 34.3867 17.9208 36.4895C17.9895 38.5923 17.7961 40.6633 17.4409 42.7203C17.3581 43.2014 18.0939 43.4077 18.1779 42.924L18.1753 42.9214Z" fill="#FF5533"/>
<path d="M33.9853 24.2601C33.9306 23.243 33.1707 22.3838 32.1091 22.3838C31.0475 22.3838 30.2328 23.2404 30.2328 24.2601C30.2328 25.2796 31.0399 26.0892 32.0277 26.1312C33.1198 26.1783 33.9281 25.3101 33.9853 24.2601C34.0121 23.7687 33.2484 23.7699 33.2216 24.2601C33.1452 25.6844 30.9966 25.6971 30.9966 24.2601C30.9966 22.8229 33.144 22.8344 33.2216 24.2601C33.2484 24.7488 34.0121 24.7514 33.9853 24.2601Z" fill="#FF5533"/>
<path d="M31.8335 17.6457C31.7788 16.6287 31.0189 15.7695 29.9573 15.7695C28.8957 15.7695 28.0811 16.6262 28.0811 17.6457C28.0811 18.6654 28.8881 19.4749 29.8758 19.5169C30.968 19.564 31.7762 18.6959 31.8335 17.6457C31.8602 17.1544 31.0965 17.1557 31.0698 17.6457C30.9935 19.0701 28.8448 19.0828 28.8448 17.6457C28.8448 16.2087 30.9922 16.2201 31.0698 17.6457C31.0965 18.1345 31.8602 18.1371 31.8335 17.6457Z" fill="#FF5533"/>
<path d="M23.6134 26.1633C23.5599 25.1704 22.8458 24.3392 21.8186 24.2921C20.7914 24.2451 19.9525 25.0164 19.8698 26.0004C19.7871 26.9843 20.4986 27.8766 21.4724 28.0166C22.6333 28.1833 23.5434 27.2783 23.6121 26.1633C23.6427 25.6719 22.8789 25.6745 22.8484 26.1633C22.7503 27.7493 20.3344 27.4641 20.645 25.9443C20.911 24.6435 22.7797 24.8865 22.8484 26.1633C22.8751 26.652 23.6389 26.6546 23.6121 26.1633H23.6134Z" fill="#FF5533"/>
<path d="M24.2 40.8187V28.8867C24.2 28.1102 23.4821 27.5781 23.0023 27.0092C22.6853 26.6324 22.1469 27.1759 22.4626 27.5489C22.7782 27.9218 23.0735 28.3724 23.435 28.7021C23.6756 28.9223 23.4439 28.599 23.435 28.6092C23.4083 28.6461 23.435 28.8001 23.435 28.8447V40.82C23.435 41.3113 24.1987 41.3126 24.1987 40.82L24.2 40.8187Z" fill="#FF5533"/>
<path d="M26.6472 37.3175V22.5851C26.6472 22.4832 26.7287 21.8316 26.6472 21.7615C26.6345 21.7501 26.4296 22.0034 26.5785 21.9652C26.6574 21.9448 26.7923 21.7425 26.8484 21.6852L27.7572 20.7407C28.2803 20.1972 28.8035 19.6524 29.3267 19.1088C29.6678 18.755 29.1281 18.214 28.787 18.5691L27.4784 19.9299C27.0113 20.4148 26.3939 20.9023 26.0095 21.4573C25.8517 21.6864 25.8835 21.8913 25.8835 22.16V37.32C25.8835 37.8114 26.6472 37.8126 26.6472 37.32V37.3175Z" fill="#FF5533"/>
<path d="M28.8467 33.2918V26.4525L28.6571 26.7822C29.4463 26.3088 30.2354 25.8352 31.0234 25.3617C31.4447 25.1097 31.0603 24.4491 30.6377 24.7023C29.8765 25.1593 29.0428 25.5654 28.3262 26.0898C27.9035 26.3991 28.0817 27.2277 28.0817 27.6924V33.2918C28.0817 33.7831 28.8455 33.7844 28.8455 33.2918H28.8467Z" fill="#FF5533"/>
</g>
<defs>
<clipPath id="clip0_599_21451">
<rect width="54" height="54" fill="white"/>
</clipPath>
</defs>
</svg>
