<svg width="1434" height="252" viewBox="0 0 1434 252" fill="none" xmlns="http://www.w3.org/2000/svg">
<mask id="mask0_599_21387" style="mask-type:alpha" maskUnits="userSpaceOnUse" x="-6" y="0" width="1440" height="252">
<path d="M1434 0H-6V252H1434V0Z" fill="#222222"/>
</mask>
<g mask="url(#mask0_599_21387)">
<path d="M-21 2.16406L583.5 2.16409" stroke="#464646" stroke-width="0.912752"/>
<path d="M583.5 1.39453L1440 1.39518" stroke="#464646" stroke-width="0.912752"/>
<path d="M583.956 2.89551V591.164" stroke="#464646" stroke-width="0.912752"/>
<path d="M583.956 -586.418V1.85101" stroke="#464646" stroke-width="0.912752"/>
<path d="M324.884 3.39453V591.664" stroke="#464646" stroke-width="0.912752"/>
<path d="M929.384 2.62012V590.889" stroke="#464646" stroke-width="0.912752"/>
<path d="M324.884 -585.897V2.37146" stroke="#464646" stroke-width="0.912752"/>
<path d="M929.384 -586.685V1.58502" stroke="#464646" stroke-width="0.912752"/>
<path d="M65.8118 3.66992V591.939" stroke="#464646" stroke-width="0.912752"/>
<path d="M670.314 2.89551V591.164" stroke="#464646" stroke-width="0.912752"/>
<path d="M65.8118 -585.649V2.61957" stroke="#464646" stroke-width="0.912752"/>
<path d="M670.314 -586.418V1.85101" stroke="#464646" stroke-width="0.912752"/>
<path d="M-21 170.918H583.5" stroke="#464646" stroke-width="0.912752"/>
<path d="M583.5 170.918H1440" stroke="#464646" stroke-width="0.912752"/>
<path d="M411.242 3.39453V591.405" stroke="#464646" stroke-width="0.912752"/>
<path d="M1015.74 2.62012V590.63" stroke="#464646" stroke-width="0.912752"/>
<path d="M411.242 -585.897V2.11182" stroke="#464646" stroke-width="0.912752"/>
<path d="M1015.74 -586.685V1.32538" stroke="#464646" stroke-width="0.912752"/>
<path d="M152.171 3.39453V591.664" stroke="#464646" stroke-width="0.912752"/>
<path d="M756.669 2.62012V590.889" stroke="#464646" stroke-width="0.912752"/>
<path d="M152.171 -585.897V2.37146" stroke="#464646" stroke-width="0.912752"/>
<path d="M756.669 -586.685V1.58502" stroke="#464646" stroke-width="0.912752"/>
<path d="M-21 86.0166H583.5" stroke="#464646" stroke-width="0.912752"/>
<path d="M583.5 86.4732L1438 86.4727" stroke="#464646" stroke-width="0.912752"/>
<path d="M497.597 3.13867V591.408" stroke="#464646" stroke-width="0.912752"/>
<path d="M1102.1 2.35645V590.626" stroke="#464646" stroke-width="0.912752"/>
<path d="M1102.1 2.35645V590.626" stroke="#464646" stroke-width="0.912752"/>
<path d="M1188.46 0V588.27" stroke="#464646" stroke-width="0.912752"/>
<path d="M1274.46 0V588.27" stroke="#464646" stroke-width="0.912752"/>
<path d="M1360.46 0V588.27" stroke="#464646" stroke-width="0.912752"/>
<path d="M497.597 -586.161V2.10864" stroke="#464646" stroke-width="0.912752"/>
<path d="M1102.1 -586.944V1.32544" stroke="#464646" stroke-width="0.912752"/>
<path d="M238.529 3.39453V591.664" stroke="#464646" stroke-width="0.912752"/>
<path d="M843.027 2.62012V590.889" stroke="#464646" stroke-width="0.912752"/>
<path d="M238.529 -585.897V2.37146" stroke="#464646" stroke-width="0.912752"/>
<path d="M843.027 -586.685V1.58502" stroke="#464646" stroke-width="0.912752"/>
<path d="M583.956 3.13867V591.408" stroke="#464646" stroke-width="0.912752"/>
<path d="M583.956 -586.161V2.10864" stroke="#464646" stroke-width="0.912752"/>
</g>
</svg>
