<svg width="54" height="54" viewBox="0 0 54 54" fill="none" xmlns="http://www.w3.org/2000/svg">
<g clip-path="url(#clip0_599_21463)">
<path d="M46.5 0.375H7.5C3.56497 0.375 0.375 3.56497 0.375 7.5V46.5C0.375 50.435 3.56497 53.625 7.5 53.625H46.5C50.435 53.625 53.625 50.435 53.625 46.5V7.5C53.625 3.56497 50.435 0.375 46.5 0.375Z" fill="#1E2027" stroke="#FF5533"/>
<path d="M39.2905 16.2002H14.7112C13.2994 16.2002 12.1509 17.2863 12.1509 18.6213V36.054C12.1509 37.389 13.2994 38.4752 14.7112 38.4752H39.2905C40.7023 38.4752 41.8509 37.389 41.8509 36.054V18.6213C41.8509 17.2863 40.7023 16.2002 39.2905 16.2002ZM40.8268 36.054C40.8268 36.855 40.1375 37.5067 39.2905 37.5067H14.7112C13.8642 37.5067 13.175 36.855 13.175 36.054V18.6213C13.175 17.8204 13.8642 17.1687 14.7112 17.1687H39.2905C40.1375 17.1687 40.8268 17.8204 40.8268 18.6213V36.054Z" fill="#FF5533"/>
<path d="M24.7311 30.6793C24.8017 30.7113 24.8775 30.727 24.9529 30.727C25.067 30.727 25.1803 30.691 25.2729 30.621L30.3936 26.747C30.5151 26.6551 30.5857 26.516 30.5857 26.3689C30.5857 26.2218 30.5151 26.0827 30.3936 25.9908L25.2729 22.1169C25.1191 22.0006 24.9085 21.9779 24.7311 22.0585C24.5538 22.1392 24.4409 22.3089 24.4409 22.495V30.2428C24.4409 30.429 24.5538 30.5986 24.7311 30.6793ZM25.465 23.5025L29.2539 26.3689L25.465 29.2353V23.5025Z" fill="#FF5533"/>
<path d="M38.2645 33.6323H21.3147C21.0769 32.5285 20.0423 31.6953 18.8059 31.6953C17.5694 31.6953 16.5349 32.5285 16.297 33.6323H14.7093C14.4265 33.6323 14.1973 33.8491 14.1973 34.1165C14.1973 34.384 14.4265 34.6008 14.7093 34.6008H16.297C16.5349 35.7046 17.5694 36.5378 18.8059 36.5378C20.0423 36.5378 21.0769 35.7046 21.3147 34.6008H38.2645C38.5473 34.6008 38.7766 34.384 38.7766 34.1165C38.7766 33.8491 38.5473 33.6323 38.2645 33.6323ZM18.8059 35.5693C17.9588 35.5693 17.2696 34.9175 17.2696 34.1165C17.2696 33.3155 17.9588 32.6638 18.8059 32.6638C19.6529 32.6638 20.3421 33.3155 20.3421 34.1165C20.3421 34.9175 19.6529 35.5693 18.8059 35.5693Z" fill="#FF5533"/>
</g>
<defs>
<clipPath id="clip0_599_21463">
<rect width="54" height="54" fill="white"/>
</clipPath>
</defs>
</svg>
