<svg width="54" height="54" viewBox="0 0 54 54" fill="none" xmlns="http://www.w3.org/2000/svg">
<g clip-path="url(#clip0_599_21443)">
<path d="M46.5 0.375H7.5C3.56497 0.375 0.375 3.56497 0.375 7.5V46.5C0.375 50.435 3.56497 53.625 7.5 53.625H46.5C50.435 53.625 53.625 50.435 53.625 46.5V7.5C53.625 3.56497 50.435 0.375 46.5 0.375Z" fill="#1E2027" stroke="#FF5533"/>
<path d="M17.3858 26.9424C15.62 26.9424 14.1753 28.2333 14.1753 29.8111V35.5486C14.1753 37.1264 15.62 38.4174 17.3858 38.4174C19.1516 38.4174 20.5964 37.1264 20.5964 35.5486V29.8111C20.5964 28.2333 19.1516 26.9424 17.3858 26.9424ZM19.5262 35.5486C19.5262 36.6005 18.563 37.4611 17.3858 37.4611C16.2086 37.4611 15.2455 36.6005 15.2455 35.5486V29.8111C15.2455 28.7593 16.2086 27.8986 17.3858 27.8986C18.563 27.8986 19.5262 28.7593 19.5262 29.8111V35.5486Z" fill="#FF5533"/>
<path d="M26.9996 21.2314C25.2338 21.2314 23.7891 22.5223 23.7891 24.1002V35.5752C23.7891 37.153 25.2338 38.4439 26.9996 38.4439C28.7654 38.4439 30.2102 37.153 30.2102 35.5752V24.1002C30.2102 22.5223 28.7654 21.2314 26.9996 21.2314ZM29.14 35.5752C29.14 36.6271 28.1768 37.4877 26.9996 37.4877C25.8224 37.4877 24.8593 36.6271 24.8593 35.5752V24.1002C24.8593 23.0483 25.8224 22.1877 26.9996 22.1877C28.1768 22.1877 29.14 23.0483 29.14 24.1002V35.5752Z" fill="#FF5533"/>
<path d="M36.6148 15.5254C34.849 15.5254 33.4043 16.8163 33.4043 18.3941V35.6066C33.4043 37.1844 34.849 38.4754 36.6148 38.4754C38.3806 38.4754 39.8254 37.1844 39.8254 35.6066V18.3941C39.8254 16.8163 38.3806 15.5254 36.6148 15.5254ZM38.7552 35.6066C38.7552 36.6585 37.792 37.5191 36.6148 37.5191C35.4376 37.5191 34.4745 36.6585 34.4745 35.6066V18.3941C34.4745 17.3423 35.4376 16.4816 36.6148 16.4816C37.792 16.4816 38.7552 17.3423 38.7552 18.3941V35.6066Z" fill="#FF5533"/>
</g>
<defs>
<clipPath id="clip0_599_21443">
<rect width="54" height="54" fill="white"/>
</clipPath>
</defs>
</svg>
